#!OML:ASF E:\Style4\Style4.ASF
:FULLY-SPECIFIED
:DEGREES
3604
root -0.100744 16.968 -1.98776 8.03562 2.99284 0.608791
lowerback 17.6744 1.58443 -4.32788
upperback 7.52079 1.35309 -1.01726
thorax -1.9142 0.611687 1.11897
lowerneck 1.09323 -12.256 -9.60162
upperneck 5.45781 -17.1932 14.3765
head 3.53587 -8.47233 5.12803
rclavicle -2.08724e-014 2.38542e-015
rhumerus 11.6513 50.5488 -46.9306
rradius 124.042
rwrist -46.5207
rhand -7.90946 18.3173
rfingers 7.12502
rthumb 17.996 -10.8702
lclavicle -2.08724e-014 2.38542e-015
lhumerus 26.4678 19.5419 53.7233
lradius 49.3897
lwrist 52.976
lhand -4.56392 24.1502
lfingers 7.12502
lthumb 21.2124 53.0095
rfemur -36.0913 -5.99923 19.6473
rtibia 51.9477
rfoot -22.0336 -15.2433
rtoes -12.2302
lfemur -37.0898 2.71804 -20.5996
ltibia 51.9052
lfoot -22.6768 6.97264
ltoes -9.89468
3605
root -0.0701084 16.9726 -1.99202 8.06018 2.69093 0.562617
lowerback 17.6608 1.53356 -4.39793
upperback 7.50196 1.27782 -0.919348
thorax -1.9265 0.571378 1.27622
lowerneck 1.23538 -12.3175 -9.58028
upperneck 5.37562 -17.273 14.3436
head 3.49298 -8.52014 5.12024
rclavicle 1.37161e-014 1.55052e-014
rhumerus 11.6621 49.0889 -46.6464
rradius 124.687
rwrist -47.2593
rhand -8.08127 18.4462
rfingers 7.12502
rthumb 17.8306 -10.7563
lclavicle 1.37161e-014 1.55052e-014
lhumerus 25.6663 19.5069 53.4715
lradius 49.6523
lwrist 53.232
lhand -4.85529 24.1626
lfingers 7.12502
lthumb 20.9324 53.0531
rfemur -36.1277 -5.9024 19.5882
rtibia 51.8289
rfoot -21.6692 -15.2151
rtoes -12.9838
lfemur -37.0416 2.84222 -20.6792
ltibia 51.8102
lfoot -22.6753 7.15848
ltoes -9.9632
3606
root -0.042905 16.9787 -1.99539 8.06164 2.3755 0.596494
lowerback 17.635 1.50922 -4.61673
upperback 7.52765 1.21662 -0.795998
thorax -1.88727 0.533405 1.54219
lowerneck 1.25146 -12.3985 -9.58447
upperneck 5.34699 -17.3738 14.2615
head 3.48711 -8.57291 5.08953
rclavicle 4.96962e-015 -1.51076e-014
rhumerus 11.6601 47.5629 -46.3127
rradius 125.346
rwrist -48.0006
rhand -8.16644 18.5901
rfingers 7.12502
rthumb 17.7487 -10.6199
lclavicle 4.96962e-015 -1.51076e-014
lhumerus 24.887 19.5435 53.3351
lradius 49.9132
lwrist 53.3405
lhand -5.02559 24.0721
lfingers 7.12502
lthumb 20.7688 52.9806
rfemur -36.1256 -5.78864 19.4451
rtibia 51.7105
rfoot -21.4798 -15.0641
rtoes -13.6858
lfemur -36.9552 3.00767 -20.8376
ltibia 51.7135
lfoot -22.7136 7.30051
ltoes -9.8106
3607
root -0.015649 16.9823 -1.999 8.04037 2.07816 0.625305
lowerback 17.7945 1.46063 -4.71848
upperback 7.45973 1.12577 -0.74345
thorax -2.03912 0.489028 1.66945
lowerneck 1.4288 -12.5322 -9.6838
upperneck 5.32165 -17.5699 14.3494
head 3.49123 -8.67792 5.12492
rclavicle 0 2.62396e-014
rhumerus 11.4951 46.0235 -46.2021
rradius 125.972
rwrist -48.7756
rhand -8.28713 18.7804
rfingers 7.12502
rthumb 17.6325 -10.44
lclavicle 0 2.62396e-014
lhumerus 24.0133 19.5424 53.156
lradius 50.1932
lwrist 53.3317
lhand -4.97451 24.0023
lfingers 7.12502
lthumb 20.8179 52.9054
rfemur -36.0889 -5.62785 19.2837
rtibia 51.595
rfoot -21.6661 -14.8162
rtoes -13.2116
lfemur -36.8602 3.22517 -20.9979
ltibia 51.636
lfoot -22.7508 7.32442
ltoes -9.59144
3608
root 0.0114129 16.9858 -2.00154 8.05749 1.80345 0.566557
lowerback 18.0334 1.39855 -4.70864
upperback 7.28516 1.02753 -0.677256
thorax -2.34462 0.447562 1.74831
lowerneck 1.91881 -12.6629 -9.80041
upperneck 5.10451 -17.7659 14.508
head 3.39534 -8.80022 5.21125
rclavicle -2.98177e-015 3.57812e-015
rhumerus 11.2708 44.4302 -46.1361
rradius 126.525
rwrist -49.689
rhand -8.45044 18.8404
rfingers 7.12502
rthumb 17.4754 -10.3941
lclavicle -2.98177e-015 3.57812e-015
lhumerus 23.0063 19.4496 52.9241
lradius 50.5768
lwrist 53.4675
lhand -4.66735 24.0614
lfingers 7.12502
lthumb 21.113 52.9319
rfemur -36.0889 -5.4898 19.2237
rtibia 51.4841
rfoot -21.7162 -14.6132
rtoes -12.8758
lfemur -36.838 3.42273 -21.0601
ltibia 51.5766
lfoot -22.7961 7.36094
ltoes -9.30835
3609
root 0.0373616 16.9897 -2.00285 8.07613 1.54678 0.513018
lowerback 18.1014 1.35421 -4.69295
upperback 7.20839 0.967761 -0.599322
thorax -2.45931 0.420075 1.83239
lowerneck 2.1445 -12.7336 -9.81611
upperneck 4.99264 -17.8615 14.4903
head 3.33674 -8.86028 5.21926
rclavicle -1.78906e-015 1.27222e-014
rhumerus 11.0246 42.531 -46.0684
rradius 127.019
rwrist -50.3705
rhand -8.29988 18.8946
rfingers 7.12502
rthumb 17.6203 -10.327
lclavicle -1.78906e-015 1.27222e-014
lhumerus 22.1795 19.355 52.792
lradius 50.9382
lwrist 53.6251
lhand -4.1287 24.2045
lfingers 7.12502
lthumb 21.6304 53.0163
rfemur -36.1074 -5.38885 19.1808
rtibia 51.3811
rfoot -21.4487 -14.5534
rtoes -13.6205
lfemur -36.8075 3.49815 -21.1091
ltibia 51.5253
lfoot -22.8584 7.54818
ltoes -9.39193
3610
root 0.0647262 16.9941 -2.00304 8.08483 1.29818 0.538188
lowerback 18.039 1.3161 -4.70665
upperback 7.2314 0.921268 -0.549499
thorax -2.40008 0.394252 1.90305
lowerneck 2.07737 -12.8177 -9.78133
upperneck 4.99896 -17.9632 14.3834
head 3.34921 -8.90868 5.16905
rclavicle -7.95139e-015 5.56597e-015
rhumerus 10.8662 40.4705 -45.9855
rradius 127.412
rwrist -50.8042
rhand -8.0443 19.0501
rfingers 7.12502
rthumb 17.8662 -10.1493
lclavicle -7.95139e-015 5.56597e-015
lhumerus 21.5213 19.2587 52.688
lradius 51.2967
lwrist 53.7804
lhand -3.87431 24.2043
lfingers 7.12502
lthumb 21.8746 52.9878
rfemur -36.1162 -5.35301 19.0587
rtibia 51.2776
rfoot -21.0839 -14.5698
rtoes -14.3985
lfemur -36.7368 3.48659 -21.2388
ltibia 51.4633
lfoot -22.9283 7.78103
ltoes -9.45565
3611
root 0.0913658 16.9979 -2.00399 8.1067 1.03428 0.531668
lowerback 17.9867 1.30565 -4.65451
upperback 7.22656 0.919928 -0.499555
thorax -2.3785 0.392843 1.92726
lowerneck 2.18348 -12.9414 -9.87956
upperneck 4.90013 -18.1326 14.4482
head 3.33851 -9.00001 5.19686
rclavicle 5.96354e-016 -1.11319e-014
rhumerus 10.6708 38.4599 -45.8472
rradius 127.812
rwrist -51.3801
rhand -8.23005 19.2668
rfingers 7.12502
rthumb 17.6875 -9.94875
lclavicle 5.96354e-016 -1.11319e-014
lhumerus 20.8635 19.0262 52.607
lradius 51.6728
lwrist 53.8425
lhand -3.92941 24.1361
lfingers 7.12502
lthumb 21.8217 52.9258
rfemur -36.1214 -5.23017 18.9442
rtibia 51.1491
rfoot -21.0943 -14.3567
rtoes -13.6291
lfemur -36.673 3.54278 -21.3304
ltibia 51.384
lfoot -22.9927 7.88173
ltoes -8.76194
3612
root 0.114958 17.0056 -2.00433 8.11802 0.733731 0.530257
lowerback 17.9189 1.32146 -4.67826
upperback 7.25024 0.942199 -0.44023
thorax -2.32052 0.400565 1.99999
lowerneck 2.48768 -13.0539 -9.89649
upperneck 4.57128 -18.2749 14.5365
head 3.21881 -9.09095 5.2444
rclavicle 1.07344e-014 -1.45113e-014
rhumerus 10.4862 36.364 -45.8401
rradius 128.148
rwrist -51.9153
rhand -8.32633 19.2104
rfingers 7.12502
rthumb 17.5948 -10.0134
lclavicle 1.07344e-014 -1.45113e-014
lhumerus 20.2883 18.8186 52.5558
lradius 51.9731
lwrist 53.8165
lhand -4.3241 23.9933
lfingers 7.12502
lthumb 21.4427 52.8266
rfemur -36.1067 -5.0589 18.8291
rtibia 50.9978
rfoot -21.0998 -14.1416
rtoes -13.2769
lfemur -36.5746 3.68784 -21.4273
ltibia 51.2823
lfoot -23.1091 7.92622
ltoes -8.16697
3613
root 0.13916 17.0149 -2.00542 8.14043 0.463381 0.477762
lowerback 17.8786 1.28969 -4.70184
upperback 7.27284 0.90232 -0.348989
thorax -2.27412 0.377362 2.11829
lowerneck 2.70788 -13.1203 -9.88257
upperneck 4.30567 -18.3508 14.5559
head 3.11413 -9.14436 5.26592
rclavicle 0 6.75868e-015
rhumerus 10.3694 34.2644 -45.993
rradius 128.317
rwrist -52.2554
rhand -8.14295 19.1631
rfingers 7.12502
rthumb 17.7713 -10.0448
lclavicle 0 6.75868e-015
lhumerus 19.7268 18.8242 52.527
lradius 52.2189
lwrist 53.7955
lhand -4.8401 23.8089
lfingers 7.12502
lthumb 20.947 52.6979
rfemur -36.0925 -4.87095 18.7779
rtibia 50.823
rfoot -20.9519 -14.0524
rtoes -13.2657
lfemur -36.5079 3.83839 -21.4761
ltibia 51.1678
lfoot -23.1743 8.04451
ltoes -8.42334
